<svg xmlns="http://www.w3.org/2000/svg" xmlns:xlink="http://www.w3.org/1999/xlink" width="2000" zoomAndPan="magnify" viewBox="0 0 1500 1499.999933" height="2000" preserveAspectRatio="xMidYMid meet" version="1.0"><defs><g/><clipPath id="3ac7501892"><rect x="0" width="1473" y="0" height="1184"/></clipPath></defs><g transform="matrix(1, 0, 0, 1, 27, 268)"><g clip-path="url(#3ac7501892)"><g fill="#000000" fill-opacity="1"><g transform="translate(0.350586, 886.778047)"><g><path d="M 367.859375 -421.09375 L 367.859375 -454.21875 C 367.859375 -500.726562 369.039062 -545.273438 371.40625 -587.859375 C 373.78125 -630.441406 380.285156 -668.289062 390.921875 -701.40625 C 401.566406 -734.53125 419.113281 -760.75 443.5625 -780.0625 C 468.007812 -799.382812 502.304688 -809.046875 546.453125 -809.046875 C 572.472656 -809.046875 593.765625 -804.117188 610.328125 -794.265625 C 626.890625 -784.410156 640.882812 -772.972656 652.3125 -759.953125 C 663.75 -746.941406 674.988281 -735.507812 686.03125 -725.65625 C 697.070312 -715.800781 710.875 -710.875 727.4375 -710.875 C 743.207031 -710.875 755.820312 -720.140625 765.28125 -738.671875 C 774.75 -757.203125 779.484375 -777.898438 779.484375 -800.765625 L 809.046875 -800.765625 C 809.046875 -691.941406 795.242188 -613.085938 767.640625 -564.203125 C 740.046875 -515.316406 697.070312 -490.875 638.71875 -490.875 C 615.0625 -490.875 595.546875 -494.03125 580.171875 -500.34375 C 564.796875 -506.65625 551.785156 -513.945312 541.140625 -522.21875 C 530.492188 -530.488281 519.847656 -537.78125 509.203125 -544.09375 C 498.566406 -550.40625 485.753906 -553.5625 470.765625 -553.5625 C 451.847656 -553.5625 436.867188 -547.644531 425.828125 -535.8125 C 414.785156 -523.976562 407.09375 -509.984375 402.75 -493.828125 C 398.414062 -477.671875 396.25 -462.890625 396.25 -449.484375 L 396.25 -427 C 429.375 -427 461.304688 -426.40625 492.046875 -425.21875 C 522.796875 -424.039062 551.773438 -418.71875 578.984375 -409.25 C 606.191406 -399.789062 630.441406 -382.050781 651.734375 -356.03125 C 667.503906 -337.101562 679.53125 -316.992188 687.8125 -295.703125 C 696.09375 -274.421875 702.796875 -253.523438 707.921875 -233.015625 C 713.046875 -212.515625 718.367188 -193.585938 723.890625 -176.234375 C 729.410156 -158.890625 737.296875 -145.09375 747.546875 -134.84375 C 768.046875 -114.34375 788.347656 -106.257812 808.453125 -110.59375 C 828.566406 -114.925781 847.691406 -126.554688 865.828125 -145.484375 L 884.75 -126.5625 C 865.039062 -100.539062 840.203125 -76.6875 810.234375 -55 C 780.265625 -33.3125 747.734375 -17.144531 712.640625 -6.5 C 677.554688 4.144531 642.269531 6.117188 606.78125 -0.578125 C 571.300781 -7.285156 538.1875 -26.019531 507.4375 -56.78125 C 486.9375 -77.28125 474.515625 -99.75 470.171875 -124.1875 C 465.835938 -148.632812 466.035156 -173.671875 470.765625 -199.296875 C 475.503906 -224.929688 480.628906 -249.578125 486.140625 -273.234375 C 491.660156 -296.890625 494.023438 -318.179688 493.234375 -337.109375 C 492.453125 -356.035156 485.160156 -371.210938 471.359375 -382.640625 C 457.554688 -394.078125 432.519531 -399.796875 396.25 -399.796875 C 395.457031 -344.597656 391.90625 -292.75 385.59375 -244.25 C 379.289062 -195.757812 368.453125 -153.179688 353.078125 -116.515625 C 337.703125 -79.847656 316.210938 -51.257812 288.609375 -30.75 C 261.015625 -10.25 225.53125 0 182.15625 0 L 27.203125 0 L 27.203125 -801.953125 L 286.25 -801.953125 L 286.25 -422.28125 C 286.25 -382.851562 280.925781 -350.519531 270.28125 -325.28125 C 259.632812 -300.050781 246.03125 -280.140625 229.46875 -265.546875 C 212.90625 -250.960938 195.359375 -239.332031 176.828125 -230.65625 C 158.296875 -221.976562 141.144531 -214.488281 125.375 -208.1875 C 109.601562 -201.875 95.800781 -191.816406 83.96875 -178.015625 C 72.144531 -164.210938 64.066406 -148.832031 59.734375 -131.875 C 55.398438 -114.925781 56.1875 -98.566406 62.09375 -82.796875 C 68.007812 -67.023438 80.628906 -54.015625 99.953125 -43.765625 C 119.273438 -33.515625 146.675781 -28.390625 182.15625 -28.390625 C 221.582031 -28.390625 253.519531 -38.441406 277.96875 -58.546875 C 302.414062 -78.660156 321.144531 -106.65625 334.15625 -142.53125 C 347.164062 -178.414062 356.035156 -220.207031 360.765625 -267.90625 C 365.492188 -315.613281 367.859375 -366.675781 367.859375 -421.09375 Z M 367.859375 -421.09375 "/></g></g></g><g fill="#000000" fill-opacity="1"><g transform="translate(805.870437, 886.778047)"><g><path d="M 21.296875 -566.5625 C 21.296875 -609.9375 32.925781 -649.957031 56.1875 -686.625 C 79.445312 -723.289062 110.988281 -752.859375 150.8125 -775.328125 C 190.632812 -797.804688 235.382812 -809.046875 285.0625 -809.046875 C 314.238281 -809.046875 340.257812 -804.507812 363.125 -795.4375 C 386 -786.375 406.703125 -775.726562 425.234375 -763.5 C 443.765625 -751.28125 460.914062 -740.632812 476.6875 -731.5625 C 492.457031 -722.5 507.4375 -717.96875 521.625 -717.96875 C 551.582031 -717.96875 570.898438 -725.65625 579.578125 -741.03125 C 588.253906 -756.40625 592.59375 -777.109375 592.59375 -803.140625 L 619.796875 -803.140625 C 623.734375 -770.804688 624.125 -737.488281 620.96875 -703.1875 C 617.820312 -668.882812 609.148438 -637.144531 594.953125 -607.96875 C 580.753906 -578.789062 559.859375 -555.132812 532.265625 -537 C 504.671875 -518.875 468.796875 -509.8125 424.640625 -509.8125 C 395.460938 -509.8125 369.632812 -516.3125 347.15625 -529.3125 C 324.6875 -542.320312 304.382812 -558.484375 286.25 -577.796875 C 268.113281 -597.117188 251.75 -616.832031 237.15625 -636.9375 C 222.570312 -657.050781 208.378906 -674.398438 194.578125 -688.984375 C 180.773438 -703.578125 166.578125 -712.453125 151.984375 -715.609375 C 137.398438 -718.765625 121.4375 -713.242188 104.09375 -699.046875 C 85.164062 -683.273438 82.207031 -663.753906 95.21875 -640.484375 C 108.226562 -617.222656 135.628906 -593.566406 177.421875 -569.515625 C 219.222656 -545.472656 273.238281 -523.992188 339.46875 -505.078125 C 364.707031 -497.972656 394.476562 -487.914062 428.78125 -474.90625 C 463.082031 -461.894531 496.789062 -444.941406 529.90625 -424.046875 C 563.019531 -403.148438 590.613281 -377.71875 612.6875 -347.75 C 634.769531 -317.789062 645.8125 -282.304688 645.8125 -241.296875 C 645.8125 -197.140625 633.984375 -156.132812 610.328125 -118.28125 C 586.671875 -80.4375 554.738281 -49.878906 514.53125 -26.609375 C 474.320312 -3.347656 428.585938 8.28125 377.328125 8.28125 C 348.148438 8.28125 321.335938 3.550781 296.890625 -5.90625 C 272.441406 -15.375 249.96875 -26.019531 229.46875 -37.84375 C 208.96875 -49.675781 190.039062 -60.320312 172.6875 -69.78125 C 155.34375 -79.25 139.179688 -83.984375 124.203125 -83.984375 C 95.023438 -83.984375 75.898438 -76.289062 66.828125 -60.90625 C 57.765625 -45.53125 53.234375 -24.832031 53.234375 1.1875 L 27.203125 1.1875 C 22.472656 -31.144531 21.878906 -64.460938 25.421875 -98.765625 C 28.972656 -133.066406 37.847656 -164.804688 52.046875 -193.984375 C 66.242188 -223.160156 87.140625 -246.816406 114.734375 -264.953125 C 142.335938 -283.085938 177.820312 -292.15625 221.1875 -292.15625 C 250.363281 -292.15625 276.78125 -285.648438 300.4375 -272.640625 C 324.09375 -259.628906 345.582031 -243.265625 364.90625 -223.546875 C 384.226562 -203.835938 402.164062 -183.925781 418.71875 -163.8125 C 435.28125 -143.707031 451.050781 -126.359375 466.03125 -111.765625 C 481.019531 -97.179688 496.003906 -88.3125 510.984375 -85.15625 C 525.960938 -82.007812 541.726562 -87.53125 558.28125 -101.71875 C 577.207031 -118.28125 578.191406 -138.785156 561.234375 -163.234375 C 544.285156 -187.679688 513.535156 -212.519531 468.984375 -237.75 C 424.441406 -262.988281 368.65625 -285.460938 301.625 -305.171875 C 248 -320.941406 199.894531 -339.078125 157.3125 -359.578125 C 114.726562 -380.085938 81.410156 -406.703125 57.359375 -439.421875 C 33.316406 -472.148438 21.296875 -514.53125 21.296875 -566.5625 Z M 21.296875 -566.5625 "/></g></g></g></g></g></svg>